<?xml version="1.0" encoding="utf-8"?>
<!-- Generator: Adobe Illustrator 22.1.0, SVG Export Plug-In . SVG Version: 6.00 Build 0)  -->
<svg version="1.1" id="Ebene_1" xmlns="http://www.w3.org/2000/svg" xmlns:xlink="http://www.w3.org/1999/xlink" x="0px" y="0px"
	 viewBox="0 0 1440 720" style="enable-background:new 0 0 1440 720;" xml:space="preserve">
<style type="text/css">
	.st0{fill:#00FFFF;}
	.st1{fill:#662D91;}
	.st2{fill:#1B1464;}
	.st3{fill:none;}
	.st4{font-family:'MyriadPro-Regular';}
	.st5{font-size:30px;}
</style>
<g id="_x34_">
	<rect x="0.4" y="0.4" class="st0" width="1439.1" height="719.1"/>
	<path d="M1439.1,0.9v718.2H0.9V0.9H1439.1 M1440,0H0v720h1440V0L1440,0z"/>
</g>
<g id="_x33_">
	<rect x="0.5" y="360.5" class="st1" width="896" height="359"/>
	<path d="M896,361V719H1V361H896 M897,360H0v360h897V360L897,360z"/>
</g>
<g id="_x32_">
	<rect x="1046.4" y="539.4" class="st2" width="393.1" height="180.1"/>
	<path d="M1439.1,539.9v179.2h-392.2V539.9H1439.1 M1440,539h-394v181h394V539L1440,539z"/>
</g>
<rect id="_x31_" x="971" y="183" class="st3" width="213" height="485"/>
<text transform="matrix(1 0 0 1 986 214.2998)"><tspan x="0" y="0" class="st4 st5">Hier stehen </tspan><tspan x="0" y="36" class="st4 st5">sehr informa</tspan><tspan x="157.9" y="36" class="st4 st5">-</tspan><tspan x="0" y="72" class="st4 st5">tive Informati</tspan><tspan x="168.1" y="72" class="st4 st5">-</tspan><tspan x="0" y="108" class="st4 st5">onen.</tspan></text>
</svg>
