<?xml version="1.0" encoding="UTF-8"?>
<svg width="1138px" height="1179px" viewBox="0 0 1138 1179" version="1.1" xmlns="http://www.w3.org/2000/svg" xmlns:xlink="http://www.w3.org/1999/xlink">
    <!-- Generator: Sketch 52.4 (67378) - http://www.bohemiancoding.com/sketch -->
    <title>TGTG_Logo_2000x2000_RGB_Rastered</title>
    <desc>Created with Sketch.</desc>
    <defs>
        <polygon id="path-1" points="0.0372707424 0.0869652266 74.5129105 0.0869652266 74.5129105 124.664652 0.0372707424 124.664652"></polygon>
    </defs>
    <g id="Page-1" stroke="none" stroke-width="1" fill="none" fill-rule="evenodd">
        <g id="Artboard" transform="translate(-110.000000, -97.000000)">
            <g id="TGTG_Logo_2000x2000_RGB_Rastered" transform="translate(110.000000, 97.000000)">
                <g id="Group-3" transform="translate(0.000000, 1051.036881)">
                    <mask id="mask-2" fill="white">
                        <use xlink:href="#path-1"></use>
                    </mask>
                    <g id="Clip-2"></g>
                    <polyline id="Fill-1" fill="#244D45" mask="url(#mask-2)" points="49.4005055 124.664652 25.1117838 124.664652 25.1117838 21.2381507 0 21.2381507 0 0.0869652266 74.5129105 0.0869652266 74.5129105 21.2381507 49.4005055 21.2381507 49.4005055 124.664652"></polyline>
                </g>
                <path d="M84.1213079,1135.21922 C84.1213079,1146.12714 91.3897238,1157.85503 103.287166,1157.85503 C115.181502,1157.85503 122.453024,1146.12714 122.453024,1135.21922 C122.453024,1123.98828 115.181502,1112.42191 103.287166,1112.42191 C91.3897238,1112.42191 84.1213079,1123.98828 84.1213079,1135.21922 Z M145.913714,1135.21922 C145.913714,1160.33354 128.730038,1178.34776 103.287166,1178.34776 C77.841809,1178.34776 60.6606179,1160.33354 60.6606179,1135.21922 C60.6606179,1109.9434 78.0082849,1091.93538 103.287166,1091.93538 C128.566047,1091.93538 145.913714,1109.9434 145.913714,1135.21922 Z" id="Fill-4" fill="#244D45"></path>
                <path d="M174.661259,1135.21922 C174.661259,1146.12714 181.930296,1157.85503 193.827738,1157.85503 C205.722074,1157.85503 212.993596,1146.12714 212.993596,1135.21922 C212.993596,1123.98828 205.722074,1112.42191 193.827738,1112.42191 C181.930296,1112.42191 174.661259,1123.98828 174.661259,1135.21922 Z M236.454286,1135.21922 C236.454286,1160.33354 219.269989,1178.34776 193.827738,1178.34776 C168.382381,1178.34776 151.20119,1160.33354 151.20119,1135.21922 C151.20119,1109.9434 168.548857,1091.93538 193.827738,1091.93538 C219.105998,1091.93538 236.454286,1109.9434 236.454286,1135.21922 Z" id="Fill-5" fill="#244D45"></path>
                <path d="M405.801979,1109.44645 L405.801979,1112.58341 C405.801979,1147.77948 387.79462,1179 349.134921,1179 C312.784766,1179 289.818535,1148.27643 289.818535,1113.90653 C289.818535,1078.38744 313.443837,1047.82538 350.618918,1047.82538 C371.766959,1047.82538 390.268776,1058.55937 399.853569,1077.56128 L378.371955,1089.12144 C373.418052,1077.8905 362.844343,1069.29958 349.957362,1069.29958 C326.496672,1069.29958 314.93094,1093.25229 314.93094,1113.90653 C314.93094,1134.56077 326.660664,1157.5258 350.12446,1157.5258 C365.32409,1157.5258 378.043973,1144.30709 378.544022,1129.27453 L352.103536,1129.27453 L352.103536,1109.44645 L405.801979,1109.44645" id="Fill-6" fill="#244D45"></path>
                <path d="M435.049573,1135.21922 C435.049573,1146.12714 442.321095,1157.85503 454.218537,1157.85503 C466.109767,1157.85503 473.38191,1146.12714 473.38191,1135.21922 C473.38191,1123.98828 466.109767,1112.42191 454.218537,1112.42191 C442.321095,1112.42191 435.049573,1123.98828 435.049573,1135.21922 Z M496.841979,1135.21922 C496.841979,1160.33354 479.658303,1178.34776 454.218537,1178.34776 C428.77318,1178.34776 411.588883,1160.33354 411.588883,1135.21922 C411.588883,1109.9434 428.939656,1091.93538 454.218537,1091.93538 C479.496797,1091.93538 496.841979,1109.9434 496.841979,1135.21922 Z" id="Fill-7" fill="#244D45"></path>
                <path d="M525.590145,1135.21922 C525.590145,1146.12714 532.861667,1157.85503 544.758488,1157.85503 C556.65034,1157.85503 563.921861,1146.12714 563.921861,1135.21922 C563.921861,1123.98828 556.65034,1112.42191 544.758488,1112.42191 C532.861667,1112.42191 525.590145,1123.98828 525.590145,1135.21922 Z M587.382551,1135.21922 C587.382551,1160.33354 570.198876,1178.34776 544.758488,1178.34776 C519.313131,1178.34776 502.129455,1160.33354 502.129455,1135.21922 C502.129455,1109.9434 519.480228,1091.93538 544.758488,1091.93538 C570.037369,1091.93538 587.382551,1109.9434 587.382551,1135.21922 Z" id="Fill-8" fill="#244D45"></path>
                <path d="M654.294094,1135.05771 C654.294094,1124.156 647.026299,1112.42191 635.124509,1112.42191 C623.235142,1112.42191 615.969211,1124.156 615.969211,1135.05771 C615.969211,1145.96564 623.235142,1157.85503 635.124509,1157.85503 C647.026299,1157.85503 654.294094,1145.96564 654.294094,1135.05771 Z M651.983308,1168.09829 L651.647871,1168.09829 C646.864793,1174.70764 638.267675,1178.34776 629.844487,1178.34776 C606.051466,1178.34776 592.5079,1156.69963 592.5079,1134.72849 C592.5079,1113.24808 606.217321,1091.93538 629.50905,1091.93538 C637.93845,1091.93538 646.529356,1095.56929 651.647871,1102.01093 L651.983308,1102.01093 L651.983308,1035.59434 L675.109803,1035.59434 L675.109803,1175.70153 L651.983308,1175.70153 L651.983308,1168.09829 Z" id="Fill-9" fill="#244D45"></path>
                <polyline id="Fill-10" fill="#244D45" points="780.523886 1175.70153 756.235786 1175.70153 756.235786 1072.27503 731.121517 1072.27503 731.121517 1051.12385 805.631943 1051.12385 805.631943 1072.27503 780.523886 1072.27503 780.523886 1175.70153"></polyline>
                <path d="M815.247795,1135.21922 C815.247795,1146.12714 822.509378,1157.85503 834.411168,1157.85503 C846.306747,1157.85503 853.574541,1146.12714 853.574541,1135.21922 C853.574541,1123.98828 846.306747,1112.42191 834.411168,1112.42191 C822.509378,1112.42191 815.247795,1123.98828 815.247795,1135.21922 Z M877.036474,1135.21922 C877.036474,1160.33354 859.854662,1178.34776 834.411168,1178.34776 C808.967675,1178.34776 791.785862,1160.33354 791.785862,1135.21922 C791.785862,1109.9434 809.129181,1091.93538 834.411168,1091.93538 C859.686943,1091.93538 877.036474,1109.9434 877.036474,1135.21922 Z" id="Fill-11" fill="#244D45"></path>
                <path d="M1046.3823,1109.44645 L1046.3823,1112.58341 C1046.3823,1147.77948 1028.37432,1179 989.71214,1179 C953.366954,1179 930.401965,1148.27643 930.401965,1113.90653 C930.401965,1078.38744 954.025404,1047.82538 991.202969,1047.82538 C1012.3479,1047.82538 1030.85283,1058.55937 1040.43141,1077.56128 L1018.95725,1089.12144 C1014.00645,1077.8905 1003.42777,1069.29958 990.54452,1069.29958 C967.082587,1069.29958 955.516234,1093.25229 955.516234,1113.90653 C955.516234,1134.56077 967.244094,1157.5258 990.706026,1157.5258 C1005.90628,1157.5258 1018.62802,1144.30709 1019.12497,1129.27453 L992.687587,1129.27453 L992.687587,1109.44645 L1046.3823,1109.44645" id="Fill-12" fill="#244D45"></path>
                <g id="Group-18" transform="translate(0.621179, 0.000000)">
                    <path d="M1075.00623,1135.21922 C1075.00623,1146.12714 1082.28024,1157.85503 1094.17582,1157.85503 C1106.0714,1157.85503 1113.3454,1146.12714 1113.3454,1135.21922 C1113.3454,1123.98828 1106.0714,1112.42191 1094.17582,1112.42191 C1082.28024,1112.42191 1075.00623,1123.98828 1075.00623,1135.21922 Z M1136.80734,1135.21922 C1136.80734,1160.33354 1119.61931,1178.34776 1094.17582,1178.34776 C1068.73233,1178.34776 1051.55051,1160.33354 1051.55051,1135.21922 C1051.55051,1109.9434 1068.90004,1091.93538 1094.17582,1091.93538 C1119.45781,1091.93538 1136.80734,1109.9434 1136.80734,1135.21922 Z" id="Fill-13" fill="#244D45"></path>
                    <path d="M975.319421,715.928804 C805.178483,914.843124 571.18096,997.01284 452.670559,899.456491 C334.160158,801.900142 376.013338,561.566148 546.151793,362.651207 C716.293974,163.735644 950.285906,81.5665495 1068.80066,179.121656 C1187.30919,276.676762 1145.45415,517.013241 975.319421,715.928804" id="Fill-15" fill="#AEDACF"></path>
                    <path d="M861.68714,470.365094 C861.68714,730.029594 736.277303,940.528925 581.570179,940.528925 C426.865539,940.528925 301.452597,730.029594 301.452597,470.364473 C301.452597,210.699351 426.865539,0.198777661 581.5708,0.198777661 C736.277303,0.198777661 861.68714,210.699351 861.68714,470.365094" id="Fill-16" fill="#71C2B3"></path>
                    <path d="M590.239354,362.651207 C760.37905,561.566148 802.234094,801.900142 683.719345,899.456491 C565.210187,997.01284 331.213285,914.843124 161.07421,715.928804 C-9.06424454,517.013241 -50.9174247,276.676141 67.592976,179.121035 C186.103998,81.5665495 420.100278,163.735644 590.239354,362.651207" id="Fill-17" fill="#45A895"></path>
                </g>
            </g>
        </g>
    </g>
</svg>